<svg xmlns="http://www.w3.org/2000/svg" width="805" height="600"><rect width="805" height="600" x="0" y="0" fill="#FFFFFF" id="backgorund"/><g id="viz"><clipPath id="serieClipPath"><rect x="-54" y="-27" width="805" height="600"/></clipPath><g transform="translate(0,0)"><g transform="translate(54,27)" clip-path="url(#serieClipPath)"><g id="axis"><g transform="translate(0,538)" fill="none" font-size="10" font-family="sans-serif" text-anchor="middle"><path class="domain" stroke="currentColor" d="M0,6V0H722V6"/><g class="tick" opacity="1" transform="translate(0,0)"><line stroke="currentColor" y2="6"/><text fill="currentColor" y="9" dy="0.71em">Thu 17</text></g><g class="tick" opacity="1" transform="translate(43.75757575757576,0)"><line stroke="currentColor" y2="6"/><text fill="currentColor" y="9" dy="0.71em">Sat 19</text></g><g class="tick" opacity="1" transform="translate(87.51515151515152,0)"><line stroke="currentColor" y2="6"/><text fill="currentColor" y="9" dy="0.71em">Mon 21</text></g><g class="tick" opacity="1" transform="translate(131.27272727272728,0)"><line stroke="currentColor" y2="6"/><text fill="currentColor" y="9" dy="0.71em">Wed 23</text></g><g class="tick" opacity="1" transform="translate(175.03030303030303,0)"><line stroke="currentColor" y2="6"/><text fill="currentColor" y="9" dy="0.71em">Fri 25</text></g><g class="tick" opacity="1" transform="translate(218.78787878787878,0)"><line stroke="currentColor" y2="6"/><text fill="currentColor" y="9" dy="0.71em">Mar 27</text></g><g class="tick" opacity="1" transform="translate(262.54545454545456,0)"><line stroke="currentColor" y2="6"/><text fill="currentColor" y="9" dy="0.71em">Tue 29</text></g><g class="tick" opacity="1" transform="translate(306.3030303030303,0)"><line stroke="currentColor" y2="6"/><text fill="currentColor" y="9" dy="0.71em">Thu 31</text></g><g class="tick" opacity="1" transform="translate(328.1818181818182,0)"><line stroke="currentColor" y2="6"/><text fill="currentColor" y="9" dy="0.71em">April</text></g><g class="tick" opacity="1" transform="translate(371.93939393939394,0)"><line stroke="currentColor" y2="6"/><text fill="currentColor" y="9" dy="0.71em">Apr 03</text></g><g class="tick" opacity="1" transform="translate(415.69696969696975,0)"><line stroke="currentColor" y2="6"/><text fill="currentColor" y="9" dy="0.71em">Tue 05</text></g><g class="tick" opacity="1" transform="translate(459.45454545454544,0)"><line stroke="currentColor" y2="6"/><text fill="currentColor" y="9" dy="0.71em">Thu 07</text></g><g class="tick" opacity="1" transform="translate(503.21212121212125,0)"><line stroke="currentColor" y2="6"/><text fill="currentColor" y="9" dy="0.71em">Sat 09</text></g><g class="tick" opacity="1" transform="translate(546.969696969697,0)"><line stroke="currentColor" y2="6"/><text fill="currentColor" y="9" dy="0.71em">Mon 11</text></g><g class="tick" opacity="1" transform="translate(590.7272727272727,0)"><line stroke="currentColor" y2="6"/><text fill="currentColor" y="9" dy="0.71em">Wed 13</text></g><g class="tick" opacity="1" transform="translate(634.4848484848485,0)"><line stroke="currentColor" y2="6"/><text fill="currentColor" y="9" dy="0.71em">Fri 15</text></g><g class="tick" opacity="1" transform="translate(678.2424242424242,0)"><line stroke="currentColor" y2="6"/><text fill="currentColor" y="9" dy="0.71em">Apr 17</text></g><g class="tick" opacity="1" transform="translate(722,0)"><line stroke="currentColor" y2="6"/><text fill="currentColor" y="9" dy="0.71em">Tue 19</text></g><text x="722" dy="-5" text-anchor="end" style="font-family: Arial, sans-serif; font-size: 12px; fill: rgb(123, 123, 123); font-weight: bold;">日期</text></g><g transform="translate(0,0)" fill="none" font-size="10" font-family="sans-serif" text-anchor="end"><path class="domain" stroke="currentColor" d="M0,538V0"/><g class="tick" opacity="1" transform="translate(0,538)"><line stroke="currentColor" x2="-6"/><text fill="currentColor" x="-9" dy="0.32em">10,000</text></g><g class="tick" opacity="1" transform="translate(0,470.75)"><line stroke="currentColor" x2="-6"/><text fill="currentColor" x="-9" dy="0.32em">15,000</text></g><g class="tick" opacity="1" transform="translate(0,403.5)"><line stroke="currentColor" x2="-6"/><text fill="currentColor" x="-9" dy="0.32em">20,000</text></g><g class="tick" opacity="1" transform="translate(0,336.25)"><line stroke="currentColor" x2="-6"/><text fill="currentColor" x="-9" dy="0.32em">25,000</text></g><g class="tick" opacity="1" transform="translate(0,269)"><line stroke="currentColor" x2="-6"/><text fill="currentColor" x="-9" dy="0.32em">30,000</text></g><g class="tick" opacity="1" transform="translate(0,201.75)"><line stroke="currentColor" x2="-6"/><text fill="currentColor" x="-9" dy="0.32em">35,000</text></g><g class="tick" opacity="1" transform="translate(0,134.5)"><line stroke="currentColor" x2="-6"/><text fill="currentColor" x="-9" dy="0.32em">40,000</text></g><g class="tick" opacity="1" transform="translate(0,67.25)"><line stroke="currentColor" x2="-6"/><text fill="currentColor" x="-9" dy="0.32em">45,000</text></g><g class="tick" opacity="1" transform="translate(0,0)"><line stroke="currentColor" x2="-6"/><text fill="currentColor" x="-9" dy="0.32em">50,000</text></g><text x="4" text-anchor="start" dominant-baseline="hanging" style="font-family: Arial, sans-serif; font-size: 12px; fill: rgb(123, 123, 123); font-weight: bold;">收盤</text></g></g><g id="viz"><g><path d="M21.87878787878788,37.01439999999999C54.696969696969695,37.01439999999999,54.696969696969695,375.29535000000004,87.51515151515152,375.29535000000004C98.45454545454545,375.29535000000004,98.45454545454545,401.17314999999996,109.39393939393939,401.17314999999996C120.33333333333334,401.17314999999996,120.33333333333334,315.2949,131.27272727272728,315.2949C142.21212121212122,315.2949,142.21212121212122,396.66740000000004,153.15151515151516,396.66740000000004C164.0909090909091,396.66740000000004,164.0909090909091,312.10725,175.03030303030303,312.10725C207.84848484848484,312.10725,207.84848484848484,298.3748,240.66666666666666,298.3748C251.60606060606062,298.3748,251.60606060606062,472.91544999999996,262.54545454545456,472.91544999999996C273.4848484848485,472.91544999999996,273.4848484848485,94.80904999999998,284.42424242424244,94.80904999999998C295.3636363636364,94.80904999999998,295.3636363636364,361.8588,306.3030303030303,361.8588C317.24242424242425,361.8588,317.24242424242425,252.22785000000002,328.1818181818182,252.22785000000002C382.8787878787879,252.22785000000002,382.8787878787879,144.84305000000003,437.57575757575756,144.84305000000003C448.5151515151515,144.84305000000003,448.5151515151515,39.27399999999997,459.45454545454544,39.27399999999997C470.3939393939394,39.27399999999997,470.3939393939394,260.23060000000004,481.3333333333333,260.23060000000004C514.1515151515151,260.23060000000004,514.1515151515151,121.44004999999997,546.969696969697,121.44004999999997C557.909090909091,121.44004999999997,557.909090909091,231.85110000000003,568.8484848484849,231.85110000000003C579.7878787878788,231.85110000000003,579.7878787878788,180.1224,590.7272727272727,180.1224C601.6666666666667,180.1224,601.6666666666667,408.48995,612.6060606060606,408.48995C623.5454545454545,408.48995,623.5454545454545,250.977,634.4848484848485,250.977C667.3030303030303,250.977,667.3030303030303,449.51245,700.1212121212121,449.51245" stroke="#1f77b4" fill="none"/><text font-family="sans-serif" font-size="10" class="labels" x="21.87878787878788" y="37.01439999999999" dx="0" dy="-4" text-anchor="middle"/></g></g></g><text y="4" x="4" style="font-family: Arial, sans-serif; font-size: 12px; fill: black; font-weight: bold; dominant-baseline: hanging;"/></g><g id="grid"><rect x="0" y="0" width="805" height="600" fill="none" stroke="#ccc"/></g></g></svg>